<svg version="1.1" id="Layer_1" xmlns="http://www.w3.org/2000/svg" xmlns:xlink="http://www.w3.org/1999/xlink" x="0px" y="0px"
	 width="100%" viewBox="0 0 381 170" enable-background="new 0 0 381 170" xml:space="preserve">
<path fill="#14B7A5" opacity="1.000000" stroke="none" 
	d="
M238.000000,171.000000 
	C158.666672,171.000000 79.833351,171.000000 1.000021,171.000000 
	C1.000014,114.333351 1.000014,57.666698 1.000007,1.000036 
	C127.999969,1.000024 254.999939,1.000024 381.999939,1.000012 
	C381.999939,57.666630 381.999939,114.333260 381.999969,170.999939 
	C334.166656,171.000000 286.333344,171.000000 238.000000,171.000000 
M184.936356,100.603813 
	C182.107361,96.715797 179.278351,92.827789 176.424561,88.905693 
	C176.852341,88.673302 177.737396,88.218956 178.597412,87.721352 
	C192.204071,79.848457 198.242172,66.958008 195.616547,51.402718 
	C193.243347,37.342789 185.188828,29.963646 168.670410,26.780785 
	C166.550995,26.372402 164.395538,25.930220 162.251801,25.903513 
	C143.770554,25.673296 125.288216,25.529572 106.805962,25.393009 
	C106.209137,25.388599 105.609711,25.737474 104.478500,26.085768 
	C104.717476,30.774210 104.246185,35.590263 105.592659,39.828861 
	C106.026474,41.194477 111.245979,41.039818 114.539299,41.627602 
	C114.628372,42.347355 114.813095,43.146069 114.813622,43.944904 
	C114.830925,70.096230 114.799110,96.247643 114.863762,122.398827 
	C114.874512,126.745850 112.930054,128.674088 108.666130,129.180161 
	C106.964531,129.382141 104.218102,130.774796 104.036087,131.949173 
	C103.443092,135.775208 103.813988,139.750641 103.813988,143.631104 
	C118.980705,143.631104 133.370148,143.631104 147.663330,143.631104 
	C147.663330,138.527557 147.663330,133.809311 147.663330,129.131149 
	C143.836807,128.718826 140.422318,128.350906 136.596420,127.938652 
	C136.596420,118.373657 136.486237,109.240257 136.752258,100.117828 
	C136.781631,99.110649 138.904617,97.425644 140.156677,97.327156 
	C144.459717,96.988663 148.807999,97.169243 153.137604,97.239716 
	C157.725983,97.314400 161.069351,99.432816 163.051544,103.603683 
	C165.479996,108.713577 167.895630,113.829582 170.309189,118.946526 
	C174.426590,127.675728 174.423340,127.673180 165.058807,129.592468 
	C164.765213,129.652634 164.523666,129.966675 164.162689,130.232391 
	C164.162689,134.598526 164.162689,139.028961 164.162689,143.637985 
	C178.801498,143.637985 193.165909,143.637985 207.668884,143.637985 
	C207.668884,138.671570 207.668884,134.074158 207.668884,129.247864 
	C206.333496,129.078293 205.184738,128.694366 204.104996,128.836121 
	C199.156357,129.485840 196.683289,127.169037 194.901306,122.657242 
	C192.032547,115.393837 188.480164,108.400436 184.936356,100.603813 
M279.356171,14.133804 
	C274.991577,12.630543 270.626984,11.127281 265.729614,9.440519 
	C247.488251,58.740017 229.408325,107.603226 211.195740,156.824966 
	C217.623795,159.218460 223.312057,161.336487 229.377396,163.594925 
	C247.794998,114.072723 265.974792,65.189941 284.216492,16.140707 
	C282.488861,15.414115 281.283142,14.907013 279.356171,14.133804 
M321.670624,74.818840 
	C329.871979,78.596161 338.073303,82.373482 347.145752,86.551994 
	C330.229706,94.699120 314.296722,102.372787 298.160583,110.144310 
	C300.818848,115.808220 303.137482,120.748489 305.624847,126.048286 
	C307.532501,125.152885 309.170258,124.415245 310.781219,123.623238 
	C328.087433,115.115036 345.232361,106.253471 362.775177,98.265358 
	C369.167419,95.354668 371.917084,92.001328 371.146210,84.898674 
	C370.748169,81.231514 369.708313,79.435181 366.450500,77.876038 
	C347.706635,68.905472 329.078644,59.692738 310.404449,50.576397 
	C308.948456,49.865616 307.439087,49.264236 305.554382,48.436218 
	C303.166656,53.739166 300.946899,58.669094 298.514465,64.071350 
	C306.301147,67.674194 313.651123,71.074997 321.670624,74.818840 
M72.098816,122.282333 
	C74.591728,123.496498 77.084641,124.710655 79.930962,126.096939 
	C82.484528,120.604591 84.834671,115.549759 87.356621,110.125420 
	C71.023430,102.256622 55.132538,94.600899 38.441593,86.559738 
	C55.236027,78.780144 71.021500,71.467918 87.022835,64.055702 
	C84.484985,58.433861 82.255669,53.495457 79.886864,48.248070 
	C58.487759,58.711422 37.698334,68.831741 16.993843,79.122948 
	C15.868742,79.682175 15.050374,81.599312 14.803008,83.009552 
	C14.434318,85.111473 14.912537,87.350792 14.651034,89.485168 
	C14.214470,93.048386 15.817681,94.744720 18.958902,96.254974 
	C36.511353,104.693947 53.945004,113.379997 72.098816,122.282333 
z"/>
<path fill="#121616" opacity="1.000000" stroke="none" 
	d="
M185.076477,100.948395 
	C188.480164,108.400436 192.032547,115.393837 194.901306,122.657242 
	C196.683289,127.169037 199.156357,129.485840 204.104996,128.836121 
	C205.184738,128.694366 206.333496,129.078293 207.668884,129.247864 
	C207.668884,134.074158 207.668884,138.671570 207.668884,143.637985 
	C193.165909,143.637985 178.801498,143.637985 164.162689,143.637985 
	C164.162689,139.028961 164.162689,134.598526 164.162689,130.232391 
	C164.523666,129.966675 164.765213,129.652634 165.058807,129.592468 
	C174.423340,127.673180 174.426590,127.675728 170.309189,118.946526 
	C167.895630,113.829582 165.479996,108.713577 163.051544,103.603683 
	C161.069351,99.432816 157.725983,97.314400 153.137604,97.239716 
	C148.807999,97.169243 144.459717,96.988663 140.156677,97.327156 
	C138.904617,97.425644 136.781631,99.110649 136.752258,100.117828 
	C136.486237,109.240257 136.596420,118.373657 136.596420,127.938652 
	C140.422318,128.350906 143.836807,128.718826 147.663330,129.131149 
	C147.663330,133.809311 147.663330,138.527557 147.663330,143.631104 
	C133.370148,143.631104 118.980705,143.631104 103.813988,143.631104 
	C103.813988,139.750641 103.443092,135.775208 104.036087,131.949173 
	C104.218102,130.774796 106.964531,129.382141 108.666130,129.180161 
	C112.930054,128.674088 114.874512,126.745850 114.863762,122.398827 
	C114.799110,96.247643 114.830925,70.096230 114.813622,43.944904 
	C114.813095,43.146069 114.628372,42.347355 114.539299,41.627602 
	C111.245979,41.039818 106.026474,41.194477 105.592659,39.828861 
	C104.246185,35.590263 104.717476,30.774210 104.478500,26.085768 
	C105.609711,25.737474 106.209137,25.388599 106.805962,25.393009 
	C125.288216,25.529572 143.770554,25.673296 162.251801,25.903513 
	C164.395538,25.930220 166.550995,26.372402 168.670410,26.780785 
	C185.188828,29.963646 193.243347,37.342789 195.616547,51.402718 
	C198.242172,66.958008 192.204071,79.848457 178.597412,87.721352 
	C177.737396,88.218956 176.852341,88.673302 176.424561,88.905693 
	C179.278351,92.827789 182.107361,96.715797 185.076477,100.948395 
M171.457321,71.676743 
	C174.574814,65.581573 175.032959,59.079201 172.757889,52.840847 
	C171.684631,49.897896 169.020477,46.583241 166.238998,45.388657 
	C156.844299,41.353817 146.828049,42.837742 136.956635,43.016644 
	C136.956635,55.659039 136.956635,67.686722 136.956635,79.715904 
	C144.612061,79.715904 152.013977,80.578835 159.072159,79.394028 
	C163.343140,78.677094 167.081329,74.786156 171.457321,71.676743 
z"/>
<path fill="#121616" opacity="1.000000" stroke="none" 
	d="
M279.716797,14.266858 
	C281.283142,14.907013 282.488861,15.414115 284.216492,16.140707 
	C265.974792,65.189941 247.794998,114.072723 229.377396,163.594925 
	C223.312057,161.336487 217.623795,159.218460 211.195740,156.824966 
	C229.408325,107.603226 247.488251,58.740017 265.729614,9.440519 
	C270.626984,11.127281 274.991577,12.630543 279.716797,14.266858 
z"/>
<path fill="#121716" opacity="1.000000" stroke="none" 
	d="
M321.335876,74.647316 
	C313.651123,71.074997 306.301147,67.674194 298.514465,64.071350 
	C300.946899,58.669094 303.166656,53.739166 305.554382,48.436218 
	C307.439087,49.264236 308.948456,49.865616 310.404449,50.576397 
	C329.078644,59.692738 347.706635,68.905472 366.450500,77.876038 
	C369.708313,79.435181 370.748169,81.231514 371.146210,84.898674 
	C371.917084,92.001328 369.167419,95.354668 362.775177,98.265358 
	C345.232361,106.253471 328.087433,115.115036 310.781219,123.623238 
	C309.170258,124.415245 307.532501,125.152885 305.624847,126.048286 
	C303.137482,120.748489 300.818848,115.808220 298.160583,110.144310 
	C314.296722,102.372787 330.229706,94.699120 347.145752,86.551994 
	C338.073303,82.373482 329.871979,78.596161 321.335876,74.647316 
z"/>
<path fill="#121616" opacity="1.000000" stroke="none" 
	d="
M71.759033,122.131973 
	C53.945004,113.379997 36.511353,104.693947 18.958902,96.254974 
	C15.817681,94.744720 14.214470,93.048386 14.651034,89.485168 
	C14.912537,87.350792 14.434318,85.111473 14.803008,83.009552 
	C15.050374,81.599312 15.868742,79.682175 16.993843,79.122948 
	C37.698334,68.831741 58.487759,58.711422 79.886864,48.248070 
	C82.255669,53.495457 84.484985,58.433861 87.022835,64.055702 
	C71.021500,71.467918 55.236027,78.780144 38.441593,86.559738 
	C55.132538,94.600899 71.023430,102.256622 87.356621,110.125420 
	C84.834671,115.549759 82.484528,120.604591 79.930962,126.096939 
	C77.084641,124.710655 74.591728,123.496498 71.759033,122.131973 
z"/>
<path fill="#14B7A5" opacity="1.000000" stroke="none" 
	d="
M171.258102,71.999008 
	C167.081329,74.786156 163.343140,78.677094 159.072159,79.394028 
	C152.013977,80.578835 144.612061,79.715904 136.956635,79.715904 
	C136.956635,67.686722 136.956635,55.659039 136.956635,43.016644 
	C146.828049,42.837742 156.844299,41.353817 166.238998,45.388657 
	C169.020477,46.583241 171.684631,49.897896 172.757889,52.840847 
	C175.032959,59.079201 174.574814,65.581573 171.258102,71.999008 
z"/>
</svg>